<svg class={{class}} viewBox="0 0 1204 236" fill="currentColor" stroke="currentColor" xmlns="http://www.w3.org/2000/svg">
<path d="M115.562 66.375C115.562 64.9583 115.354 63.625 114.938 62.375C114.604 61.0417 114.188 59.7917 113.688 58.625C113.188 57.375 112.729 56.1667 112.312 55C111.979 53.75 111.812 52.4583 111.812 51.125C111.812 50.625 111.938 49.9167 112.188 49C112.521 48 112.896 47.0417 113.312 46.125C113.812 45.125 114.312 44.2083 114.812 43.375C115.312 42.5417 115.812 42 116.312 41.75C116.562 41.8333 116.938 42.625 117.438 44.125C118.021 45.625 118.604 47.3333 119.188 49.25C119.771 51.0833 120.312 52.875 120.812 54.625C121.396 56.2917 121.812 57.2917 122.062 57.625C122.562 58.4583 123.396 59.7083 124.562 61.375C125.812 62.9583 127.188 64.75 128.688 66.75C130.188 68.75 131.771 70.8333 133.438 73C135.104 75.1667 136.688 77.25 138.188 79.25C139.771 81.25 141.188 83.0417 142.438 84.625C143.688 86.2083 144.604 87.375 145.188 88.125C145.438 88.4583 146.271 89.2917 147.688 90.625C149.104 91.9583 150.771 93.5 152.688 95.25L158.312 100.25C160.146 101.917 161.604 103.208 162.688 104.125C162.771 104.292 163.188 104.708 163.938 105.375C164.688 105.958 165.438 106.625 166.188 107.375C167.021 108.125 167.812 108.833 168.562 109.5C169.312 110.083 169.771 110.417 169.938 110.5C170.438 108.5 170.562 106.167 170.312 103.5C170.062 100.833 169.938 98.4167 169.938 96.25C169.938 92.3333 169.688 88.4583 169.188 84.625C168.688 80.7083 168.146 76.8333 167.562 73C167.062 69.1667 166.562 65.3333 166.062 61.5C165.562 57.5833 165.312 53.6667 165.312 49.75V48.375C165.312 47.7083 165.312 47.0417 165.312 46.375C165.396 45.625 165.438 44.9583 165.438 44.375V43.125C166.021 42.125 166.771 41.625 167.688 41.625C168.688 41.625 169.354 42.0833 169.688 43C170.104 43.8333 170.312 44.7917 170.312 45.875C170.396 46.875 170.312 47.875 170.062 48.875C169.896 49.7917 169.812 50.2917 169.812 50.375L177.188 112.75C177.188 113.917 176.896 114.833 176.312 115.5C175.729 116.167 175.062 116.75 174.312 117.25C173.562 117.667 172.771 117.958 171.938 118.125C171.104 118.292 170.396 118.417 169.812 118.5C169.729 118.583 169.646 118.625 169.562 118.625H169.062C168.562 118.625 168.021 118.417 167.438 118C166.938 117.5 166.438 116.958 165.938 116.375C165.521 115.792 165.146 115.167 164.812 114.5C164.479 113.75 164.229 113.167 164.062 112.75C163.229 111.833 161.854 110.458 159.938 108.625C158.104 106.708 156.062 104.583 153.812 102.25C151.562 99.9167 149.146 97.4583 146.562 94.875C144.062 92.2083 141.646 89.6667 139.312 87.25C137.062 84.8333 135.021 82.6667 133.188 80.75C131.438 78.8333 130.146 77.4167 129.312 76.5C128.896 76.0833 128.188 75.2917 127.188 74.125C126.188 72.875 125.146 71.5417 124.062 70.125C123.062 68.7083 122.062 67.375 121.062 66.125C120.146 64.875 119.521 63.9583 119.188 63.375V67.75C119.188 69.8333 119.146 72.0417 119.062 74.375C119.062 76.625 119.062 78.7917 119.062 80.875V85.25C119.062 92.25 119.312 99.1667 119.812 106C120.312 112.833 120.562 119.75 120.562 126.75V127.25C120.396 127.5 119.938 128 119.188 128.75C118.521 129.5 118.021 129.958 117.688 130.125L115.562 128.625V66.375ZM185.312 129.875C184.562 129.875 184.021 129.667 183.688 129.25C183.354 128.833 183.104 128.292 182.938 127.625C182.854 127.042 182.854 126.375 182.938 125.625C183.021 124.958 183.062 124.417 183.062 124L204.938 31.25C205.104 30.5 205.438 29.7083 205.938 28.875C206.521 27.9583 207.104 27.2917 207.688 26.875C207.938 27.625 208.312 28.4167 208.812 29.25C209.312 30 209.938 30.6667 210.688 31.25L245.438 110.875C245.521 110.958 245.562 111.167 245.562 111.5V112.25C245.562 113.083 245.396 113.833 245.062 114.5C244.729 115.083 244.146 115.375 243.312 115.375C242.229 115.375 241.479 114.875 241.062 113.875L232.312 93.625C232.312 93.5417 231.771 93.4583 230.688 93.375C229.688 93.2083 228.896 93.125 228.312 93.125C227.979 93.125 227.479 93.1667 226.812 93.25C226.229 93.25 225.604 93.2917 224.938 93.375C224.271 93.375 223.646 93.4167 223.062 93.5C222.562 93.5833 222.271 93.625 222.188 93.625C220.271 93.9583 217.771 94.4167 214.688 95C211.688 95.5 208.729 96.0833 205.812 96.75C202.896 97.3333 200.354 97.875 198.188 98.375C196.104 98.875 194.979 99.2083 194.812 99.375L187.438 128.25C187.354 128.833 187.104 129.25 186.688 129.5C186.271 129.75 185.812 129.875 185.312 129.875ZM207.688 39.875C207.604 40.125 207.479 40.4583 207.312 40.875C207.229 41.2083 207.104 41.625 206.938 42.125C206.771 42.5417 206.646 42.9583 206.562 43.375C206.479 43.7917 206.396 44.0833 206.312 44.25C205.729 46.4167 205.104 49.0417 204.438 52.125L200.062 71.75C199.312 75.1667 198.646 78.2917 198.062 81.125C197.562 83.9583 197.104 86.4167 196.688 88.5C196.354 90.5833 196.188 91.9167 196.188 92.5C197.354 92.5 198.979 92.4167 201.062 92.25C203.146 92.0833 205.354 91.8333 207.688 91.5C210.104 91.0833 212.521 90.6667 214.938 90.25C217.438 89.8333 219.646 89.3333 221.562 88.75C223.562 88.1667 225.188 87.5833 226.438 87C227.688 86.3333 228.312 85.6667 228.312 85C228.312 84.8333 228.271 84.5833 228.188 84.25C228.188 83.8333 228.146 83.5417 228.062 83.375L207.688 39.875ZM285.938 122.875C285.688 117.042 285.479 111 285.312 104.75C285.146 98.5 284.854 92.2083 284.438 85.875C284.104 79.4583 283.562 73.125 282.812 66.875C282.146 60.5417 281.271 54.4583 280.188 48.625C279.854 47.2917 279.562 46.4583 279.312 46.125C279.062 45.7917 278.438 45.625 277.438 45.625C275.438 45.625 273.521 45.9583 271.688 46.625C269.854 47.2083 267.979 47.875 266.062 48.625C264.229 49.375 262.396 50.0833 260.562 50.75C258.729 51.3333 256.771 51.625 254.688 51.625C253.604 51.625 252.729 51.4583 252.062 51.125C251.396 50.7083 251.062 49.875 251.062 48.625C251.062 48.0417 251.104 47.4583 251.188 46.875C251.354 46.2917 251.854 45.9583 252.688 45.875L277.188 39.875C277.021 38.0417 277.146 36.875 277.562 36.375C278.062 35.7917 278.854 35.5 279.938 35.5C281.354 35.5 282.562 35.7917 283.562 36.375C284.562 36.875 285.812 37.125 287.312 37.125C291.062 37.125 294.771 36.8333 298.438 36.25C302.104 35.5833 305.771 34.875 309.438 34.125C313.104 33.2917 316.729 32.5833 320.312 32C323.979 31.3333 327.646 31 331.312 31V32.25C331.312 32.8333 331.271 33.4583 331.188 34.125C331.188 34.7917 331.021 35.4167 330.688 36C330.354 36.5833 329.938 36.9167 329.438 37C328.521 37.0833 327.146 37.25 325.312 37.5C323.562 37.6667 321.521 37.9167 319.188 38.25C316.938 38.5 314.562 38.7917 312.062 39.125C309.562 39.375 307.146 39.6667 304.812 40C302.479 40.25 300.396 40.5417 298.562 40.875C296.812 41.125 295.479 41.2917 294.562 41.375C293.812 41.5417 292.854 41.7917 291.688 42.125C290.604 42.375 289.521 42.6667 288.438 43C287.354 43.25 286.396 43.5 285.562 43.75C284.812 44 284.438 44.1667 284.438 44.25V45.875L291.688 121.25V122.875C291.604 123.042 291.396 123.25 291.062 123.5C290.812 123.667 290.438 123.833 289.938 124C289.438 124.083 288.854 124.083 288.188 124C287.521 123.833 286.771 123.458 285.938 122.875ZM315.312 129.875C314.562 129.875 314.021 129.667 313.688 129.25C313.354 128.833 313.104 128.292 312.938 127.625C312.854 127.042 312.854 126.375 312.938 125.625C313.021 124.958 313.062 124.417 313.062 124L334.938 31.25C335.104 30.5 335.438 29.7083 335.938 28.875C336.521 27.9583 337.104 27.2917 337.688 26.875C337.938 27.625 338.312 28.4167 338.812 29.25C339.312 30 339.938 30.6667 340.688 31.25L375.438 110.875C375.521 110.958 375.562 111.167 375.562 111.5V112.25C375.562 113.083 375.396 113.833 375.062 114.5C374.729 115.083 374.146 115.375 373.312 115.375C372.229 115.375 371.479 114.875 371.062 113.875L362.312 93.625C362.312 93.5417 361.771 93.4583 360.688 93.375C359.688 93.2083 358.896 93.125 358.312 93.125C357.979 93.125 357.479 93.1667 356.812 93.25C356.229 93.25 355.604 93.2917 354.938 93.375C354.271 93.375 353.646 93.4167 353.062 93.5C352.562 93.5833 352.271 93.625 352.188 93.625C350.271 93.9583 347.771 94.4167 344.688 95C341.688 95.5 338.729 96.0833 335.812 96.75C332.896 97.3333 330.354 97.875 328.188 98.375C326.104 98.875 324.979 99.2083 324.812 99.375L317.438 128.25C317.354 128.833 317.104 129.25 316.688 129.5C316.271 129.75 315.812 129.875 315.312 129.875ZM337.688 39.875C337.604 40.125 337.479 40.4583 337.312 40.875C337.229 41.2083 337.104 41.625 336.938 42.125C336.771 42.5417 336.646 42.9583 336.562 43.375C336.479 43.7917 336.396 44.0833 336.312 44.25C335.729 46.4167 335.104 49.0417 334.438 52.125L330.062 71.75C329.312 75.1667 328.646 78.2917 328.062 81.125C327.562 83.9583 327.104 86.4167 326.688 88.5C326.354 90.5833 326.188 91.9167 326.188 92.5C327.354 92.5 328.979 92.4167 331.062 92.25C333.146 92.0833 335.354 91.8333 337.688 91.5C340.104 91.0833 342.521 90.6667 344.938 90.25C347.438 89.8333 349.646 89.3333 351.562 88.75C353.562 88.1667 355.188 87.5833 356.438 87C357.688 86.3333 358.312 85.6667 358.312 85C358.312 84.8333 358.271 84.5833 358.188 84.25C358.188 83.8333 358.146 83.5417 358.062 83.375L337.688 39.875ZM383.312 121.125C383.396 120.458 383.479 119.375 383.562 117.875C383.729 116.375 383.896 114.792 384.062 113.125C384.229 111.458 384.354 109.875 384.438 108.375C384.604 106.792 384.688 105.708 384.688 105.125C384.688 103.792 384.688 101.75 384.688 99C384.771 96.1667 384.812 93 384.812 89.5V67.25C384.812 63.75 384.771 60.625 384.688 57.875C384.688 55.0417 384.688 52.9167 384.688 51.5C385.021 50.9167 385.312 50.5417 385.562 50.375C385.812 50.2083 386.229 50.125 386.812 50.125H387.688C387.938 50.2917 388.354 50.5833 388.938 51C389.521 51.3333 389.812 51.5 389.812 51.5V116.375C390.062 116.375 390.479 116.417 391.062 116.5C391.646 116.583 392.271 116.667 392.938 116.75C393.688 116.75 394.354 116.75 394.938 116.75C395.604 116.75 396.021 116.75 396.188 116.75C397.104 116.667 398.438 116.5 400.188 116.25C402.021 116 404.104 115.75 406.438 115.5C408.771 115.25 411.188 115 413.688 114.75C416.188 114.417 418.562 114.125 420.812 113.875C423.146 113.542 425.188 113.25 426.938 113C428.771 112.75 430.146 112.542 431.062 112.375C432.229 111.792 433.229 111.417 434.062 111.25C434.896 111 435.896 110.875 437.062 110.875C438.146 110.875 438.854 111.25 439.188 112C439.604 112.75 439.812 113.583 439.812 114.5C439.812 115.25 439.646 115.917 439.312 116.5C439.062 117 438.729 117.583 438.312 118.25C434.062 117.833 429.771 117.875 425.438 118.375C421.188 118.875 416.938 119.583 412.688 120.5C408.438 121.333 404.229 122.125 400.062 122.875C395.896 123.625 391.771 124 387.688 124C387.104 124 386.312 123.667 385.312 123C384.312 122.333 383.646 121.708 383.312 121.125ZM447.812 122.5C447.729 120.917 447.521 118.417 447.188 115C446.854 111.5 446.479 107.542 446.062 103.125C445.729 98.7083 445.312 94.0833 444.812 89.25C444.396 84.4167 443.979 79.8333 443.562 75.5C443.229 71.0833 442.896 67.125 442.562 63.625C442.312 60.125 442.146 57.5833 442.062 56V55.125C442.062 54.7083 442.021 54.25 441.938 53.75C441.938 53.1667 441.938 52.625 441.938 52.125V49.875C441.938 49.375 441.938 48.875 441.938 48.375C442.021 47.7917 442.062 47.2917 442.062 46.875V45.875C442.229 45.0417 442.604 44.5417 443.188 44.375C443.771 44.2083 444.354 44.125 444.938 44.125C445.104 44.125 445.354 44.1667 445.688 44.25C446.021 44.25 446.271 44.25 446.438 44.25L452.188 113.875C452.271 114.125 452.354 114.5 452.438 115C452.604 115.5 452.771 116.083 452.938 116.75C453.188 117.417 453.354 118 453.438 118.5C453.521 119 453.604 119.375 453.688 119.625V120.375C453.688 120.875 453.521 121.333 453.188 121.75C452.854 122.167 452.438 122.542 451.938 122.875C451.438 123.208 450.938 123.5 450.438 123.75C450.021 123.917 449.646 124 449.312 124C449.062 124 448.729 123.833 448.312 123.5C447.979 123.083 447.812 122.75 447.812 122.5ZM458.688 129.875C457.938 129.875 457.396 129.667 457.062 129.25C456.729 128.833 456.479 128.292 456.312 127.625C456.229 127.042 456.229 126.375 456.312 125.625C456.396 124.958 456.438 124.417 456.438 124L478.312 31.25C478.479 30.5 478.812 29.7083 479.312 28.875C479.896 27.9583 480.479 27.2917 481.062 26.875C481.312 27.625 481.688 28.4167 482.188 29.25C482.688 30 483.312 30.6667 484.062 31.25L518.812 110.875C518.896 110.958 518.938 111.167 518.938 111.5V112.25C518.938 113.083 518.771 113.833 518.438 114.5C518.104 115.083 517.521 115.375 516.688 115.375C515.604 115.375 514.854 114.875 514.438 113.875L505.688 93.625C505.688 93.5417 505.146 93.4583 504.062 93.375C503.062 93.2083 502.271 93.125 501.688 93.125C501.354 93.125 500.854 93.1667 500.188 93.25C499.604 93.25 498.979 93.2917 498.312 93.375C497.646 93.375 497.021 93.4167 496.438 93.5C495.938 93.5833 495.646 93.625 495.562 93.625C493.646 93.9583 491.146 94.4167 488.062 95C485.062 95.5 482.104 96.0833 479.188 96.75C476.271 97.3333 473.729 97.875 471.562 98.375C469.479 98.875 468.354 99.2083 468.188 99.375L460.812 128.25C460.729 128.833 460.479 129.25 460.062 129.5C459.646 129.75 459.188 129.875 458.688 129.875ZM481.062 39.875C480.979 40.125 480.854 40.4583 480.688 40.875C480.604 41.2083 480.479 41.625 480.312 42.125C480.146 42.5417 480.021 42.9583 479.938 43.375C479.854 43.7917 479.771 44.0833 479.688 44.25C479.104 46.4167 478.479 49.0417 477.812 52.125L473.438 71.75C472.688 75.1667 472.021 78.2917 471.438 81.125C470.938 83.9583 470.479 86.4167 470.062 88.5C469.729 90.5833 469.562 91.9167 469.562 92.5C470.729 92.5 472.354 92.4167 474.438 92.25C476.521 92.0833 478.729 91.8333 481.062 91.5C483.479 91.0833 485.896 90.6667 488.312 90.25C490.812 89.8333 493.021 89.3333 494.938 88.75C496.938 88.1667 498.562 87.5833 499.812 87C501.062 86.3333 501.688 85.6667 501.688 85C501.688 84.8333 501.646 84.5833 501.562 84.25C501.562 83.8333 501.521 83.5417 501.438 83.375L481.062 39.875ZM605.062 117.75C605.062 117 605.104 116.25 605.188 115.5C605.354 114.667 605.854 114.125 606.688 113.875C607.021 114.625 607.396 115.458 607.812 116.375C608.312 117.208 608.896 117.833 609.562 118.25H610.562C611.146 118.25 611.688 118.292 612.188 118.375C612.688 118.375 613.188 118.375 613.688 118.375H614.688C617.521 118.375 620.354 117.917 623.188 117C626.104 116 628.688 114.583 630.938 112.75C633.271 110.917 635.146 108.75 636.562 106.25C637.979 103.75 638.688 100.917 638.688 97.75C638.688 94.5833 637.854 91.8333 636.188 89.5C634.604 87.0833 632.521 85.125 629.938 83.625C627.438 82.0417 624.688 80.875 621.688 80.125C618.688 79.375 615.854 79 613.188 79C612.854 79 612.021 79.0417 610.688 79.125C609.438 79.2083 608.062 79.375 606.562 79.625C605.146 79.7917 603.854 80.0833 602.688 80.5C601.521 80.8333 600.938 81.2917 600.938 81.875V106.625C600.938 107.208 600.646 107.625 600.062 107.875C599.562 108.042 599.146 108.125 598.812 108.125C598.229 108.125 597.688 107.583 597.188 106.5C596.688 105.333 596.271 103.917 595.938 102.25C595.604 100.5 595.312 98.5833 595.062 96.5C594.812 94.4167 594.562 92.4167 594.312 90.5C594.146 88.5 594.021 86.75 593.938 85.25C593.854 83.75 593.771 82.625 593.688 81.875V69C593.604 68 593.438 66.2917 593.188 63.875C592.938 61.375 592.646 58.75 592.312 56C592.062 53.1667 591.771 50.5417 591.438 48.125C591.188 45.625 590.979 43.875 590.812 42.875C591.062 41.375 590.812 40.5 590.062 40.25C589.396 40 588.562 39.9167 587.562 40C586.562 40 585.604 39.9583 584.688 39.875C583.854 39.7083 583.438 39 583.438 37.75V37.375C583.438 37.2917 583.479 37.1667 583.562 37L590.812 29.75H591.562C592.146 29.75 592.812 29.75 593.562 29.75C594.312 29.6667 595.062 29.625 595.812 29.625H597.812C600.312 29.625 603.271 29.7083 606.688 29.875C610.104 30.0417 613.312 30.5833 616.312 31.5C619.312 32.3333 621.854 33.75 623.938 35.75C626.104 37.75 627.188 40.5833 627.188 44.25C627.188 47.0833 626.562 49.8333 625.312 52.5C624.146 55.1667 622.688 57.75 620.938 60.25C619.188 62.6667 617.271 65 615.188 67.25C613.188 69.5 611.312 71.5 609.562 73.25C613.396 73.6667 617.312 74.2917 621.312 75.125C625.312 75.875 628.938 77.2083 632.188 79.125C635.438 80.9583 638.062 83.375 640.062 86.375C642.146 89.375 643.188 93.25 643.188 98C643.188 101.75 642.229 105.25 640.312 108.5C638.479 111.667 636.104 114.417 633.188 116.75C630.271 119 626.979 120.792 623.312 122.125C619.729 123.458 616.146 124.125 612.562 124.125C611.646 124.125 610.729 123.958 609.812 123.625C608.979 123.292 608.188 122.833 607.438 122.25C606.771 121.583 606.188 120.875 605.688 120.125C605.271 119.375 605.062 118.583 605.062 117.75ZM599.438 73.25C601.938 72.4167 604.521 70.9583 607.188 68.875C609.938 66.7917 612.479 64.4167 614.812 61.75C617.146 59 619.062 56.0833 620.562 53C622.062 49.9167 622.812 47 622.812 44.25C622.812 41.9167 621.979 40.1667 620.312 39C618.729 37.75 616.854 36.875 614.688 36.375C612.604 35.875 610.438 35.625 608.188 35.625C605.938 35.5417 604.188 35.5 602.938 35.5H601.188C600.521 35.5 599.812 35.5417 599.062 35.625C598.396 35.625 597.812 35.6667 597.312 35.75C596.896 35.75 596.646 35.75 596.562 35.75L595.188 38.5L599.438 73.25ZM649.562 89.25C649.979 85.8333 650.354 82.375 650.688 78.875C651.104 75.2917 651.604 71.7917 652.188 68.375C652.771 64.875 653.562 61.5833 654.562 58.5C655.646 55.3333 657.104 52.625 658.938 50.375C660.854 48.0417 663.229 46.1667 666.062 44.75C668.896 43.3333 672.396 42.625 676.562 42.625C679.979 42.625 682.979 43.375 685.562 44.875C688.229 46.2917 690.479 48.2083 692.312 50.625C694.229 53.0417 695.771 55.8333 696.938 59C698.104 62.0833 699.021 65.25 699.688 68.5C700.438 71.75 700.979 75 701.312 78.25C701.646 81.5 701.812 84.4583 701.812 87.125C701.812 91.5417 701.104 95.9583 699.688 100.375C698.271 104.708 696.229 108.667 693.562 112.25C690.979 115.75 687.771 118.625 683.938 120.875C680.188 123.042 675.896 124.125 671.062 124.125C666.896 124.125 663.438 123 660.688 120.75C657.938 118.5 655.729 115.708 654.062 112.375C652.396 108.958 651.229 105.292 650.562 101.375C649.896 97.4583 649.562 93.875 649.562 90.625V89.25ZM653.688 90.375C653.688 93.2917 653.979 96.5 654.562 100C655.146 103.417 656.146 106.583 657.562 109.5C658.979 112.417 660.896 114.875 663.312 116.875C665.812 118.792 668.938 119.75 672.688 119.75C677.104 119.75 680.854 118.625 683.938 116.375C687.104 114.125 689.688 111.333 691.688 108C693.771 104.583 695.271 100.875 696.188 96.875C697.104 92.875 697.562 89.125 697.562 85.625C697.562 82.375 697.312 78.5417 696.812 74.125C696.312 69.625 695.271 65.375 693.688 61.375C692.188 57.375 689.979 54 687.062 51.25C684.229 48.4167 680.562 47 676.062 47C672.896 47 670.146 47.75 667.812 49.25C665.479 50.75 663.479 52.75 661.812 55.25C660.146 57.6667 658.771 60.4583 657.688 63.625C656.688 66.7083 655.896 69.875 655.312 73.125C654.729 76.2917 654.312 79.4167 654.062 82.5C653.812 85.5 653.688 88.125 653.688 90.375ZM709.688 66.375C709.688 64.9583 709.479 63.625 709.062 62.375C708.729 61.0417 708.312 59.7917 707.812 58.625C707.312 57.375 706.854 56.1667 706.438 55C706.104 53.75 705.938 52.4583 705.938 51.125C705.938 50.625 706.062 49.9167 706.312 49C706.646 48 707.021 47.0417 707.438 46.125C707.938 45.125 708.438 44.2083 708.938 43.375C709.438 42.5417 709.938 42 710.438 41.75C710.688 41.8333 711.062 42.625 711.562 44.125C712.146 45.625 712.729 47.3333 713.312 49.25C713.896 51.0833 714.438 52.875 714.938 54.625C715.521 56.2917 715.938 57.2917 716.188 57.625C716.688 58.4583 717.521 59.7083 718.688 61.375C719.938 62.9583 721.312 64.75 722.812 66.75C724.312 68.75 725.896 70.8333 727.562 73C729.229 75.1667 730.812 77.25 732.312 79.25C733.896 81.25 735.312 83.0417 736.562 84.625C737.812 86.2083 738.729 87.375 739.312 88.125C739.562 88.4583 740.396 89.2917 741.812 90.625C743.229 91.9583 744.896 93.5 746.812 95.25L752.438 100.25C754.271 101.917 755.729 103.208 756.812 104.125C756.896 104.292 757.312 104.708 758.062 105.375C758.812 105.958 759.562 106.625 760.312 107.375C761.146 108.125 761.938 108.833 762.688 109.5C763.438 110.083 763.896 110.417 764.062 110.5C764.562 108.5 764.688 106.167 764.438 103.5C764.188 100.833 764.062 98.4167 764.062 96.25C764.062 92.3333 763.812 88.4583 763.312 84.625C762.812 80.7083 762.271 76.8333 761.688 73C761.188 69.1667 760.688 65.3333 760.188 61.5C759.688 57.5833 759.438 53.6667 759.438 49.75V48.375C759.438 47.7083 759.438 47.0417 759.438 46.375C759.521 45.625 759.562 44.9583 759.562 44.375V43.125C760.146 42.125 760.896 41.625 761.812 41.625C762.812 41.625 763.479 42.0833 763.812 43C764.229 43.8333 764.438 44.7917 764.438 45.875C764.521 46.875 764.438 47.875 764.188 48.875C764.021 49.7917 763.938 50.2917 763.938 50.375L771.312 112.75C771.312 113.917 771.021 114.833 770.438 115.5C769.854 116.167 769.188 116.75 768.438 117.25C767.688 117.667 766.896 117.958 766.062 118.125C765.229 118.292 764.521 118.417 763.938 118.5C763.854 118.583 763.771 118.625 763.688 118.625H763.188C762.688 118.625 762.146 118.417 761.562 118C761.062 117.5 760.562 116.958 760.062 116.375C759.646 115.792 759.271 115.167 758.938 114.5C758.604 113.75 758.354 113.167 758.188 112.75C757.354 111.833 755.979 110.458 754.062 108.625C752.229 106.708 750.188 104.583 747.938 102.25C745.688 99.9167 743.271 97.4583 740.688 94.875C738.188 92.2083 735.771 89.6667 733.438 87.25C731.188 84.8333 729.146 82.6667 727.312 80.75C725.562 78.8333 724.271 77.4167 723.438 76.5C723.021 76.0833 722.312 75.2917 721.312 74.125C720.312 72.875 719.271 71.5417 718.188 70.125C717.188 68.7083 716.188 67.375 715.188 66.125C714.271 64.875 713.646 63.9583 713.312 63.375V67.75C713.312 69.8333 713.271 72.0417 713.188 74.375C713.188 76.625 713.188 78.7917 713.188 80.875V85.25C713.188 92.25 713.438 99.1667 713.938 106C714.438 112.833 714.688 119.75 714.688 126.75V127.25C714.521 127.5 714.062 128 713.312 128.75C712.646 129.5 712.146 129.958 711.812 130.125L709.688 128.625V66.375ZM779.438 129.875C778.688 129.875 778.146 129.667 777.812 129.25C777.479 128.833 777.229 128.292 777.062 127.625C776.979 127.042 776.979 126.375 777.062 125.625C777.146 124.958 777.188 124.417 777.188 124L799.062 31.25C799.229 30.5 799.562 29.7083 800.062 28.875C800.646 27.9583 801.229 27.2917 801.812 26.875C802.062 27.625 802.438 28.4167 802.938 29.25C803.438 30 804.062 30.6667 804.812 31.25L839.562 110.875C839.646 110.958 839.688 111.167 839.688 111.5V112.25C839.688 113.083 839.521 113.833 839.188 114.5C838.854 115.083 838.271 115.375 837.438 115.375C836.354 115.375 835.604 114.875 835.188 113.875L826.438 93.625C826.438 93.5417 825.896 93.4583 824.812 93.375C823.812 93.2083 823.021 93.125 822.438 93.125C822.104 93.125 821.604 93.1667 820.938 93.25C820.354 93.25 819.729 93.2917 819.062 93.375C818.396 93.375 817.771 93.4167 817.188 93.5C816.688 93.5833 816.396 93.625 816.312 93.625C814.396 93.9583 811.896 94.4167 808.812 95C805.812 95.5 802.854 96.0833 799.938 96.75C797.021 97.3333 794.479 97.875 792.312 98.375C790.229 98.875 789.104 99.2083 788.938 99.375L781.562 128.25C781.479 128.833 781.229 129.25 780.812 129.5C780.396 129.75 779.938 129.875 779.438 129.875ZM801.812 39.875C801.729 40.125 801.604 40.4583 801.438 40.875C801.354 41.2083 801.229 41.625 801.062 42.125C800.896 42.5417 800.771 42.9583 800.688 43.375C800.604 43.7917 800.521 44.0833 800.438 44.25C799.854 46.4167 799.229 49.0417 798.562 52.125L794.188 71.75C793.438 75.1667 792.771 78.2917 792.188 81.125C791.688 83.9583 791.229 86.4167 790.812 88.5C790.479 90.5833 790.312 91.9167 790.312 92.5C791.479 92.5 793.104 92.4167 795.188 92.25C797.271 92.0833 799.479 91.8333 801.812 91.5C804.229 91.0833 806.646 90.6667 809.062 90.25C811.562 89.8333 813.771 89.3333 815.688 88.75C817.688 88.1667 819.312 87.5833 820.562 87C821.812 86.3333 822.438 85.6667 822.438 85C822.438 84.8333 822.396 84.5833 822.312 84.25C822.312 83.8333 822.271 83.5417 822.188 83.375L801.812 39.875ZM860.312 116C860.312 115 860.646 114.083 861.312 113.25C861.979 112.333 862.688 111.583 863.438 111C863.604 113.333 864.354 115.167 865.688 116.5C867.021 117.75 868.854 118.375 871.188 118.375C873.271 118.375 875.646 118 878.312 117.25C880.979 116.5 883.438 115.417 885.688 114C888.021 112.583 889.938 110.875 891.438 108.875C893.021 106.792 893.812 104.5 893.812 102C893.812 99 892.646 96.5833 890.312 94.75C887.979 92.9167 885.021 91.375 881.438 90.125C877.854 88.7917 873.979 87.5417 869.812 86.375C865.646 85.2083 861.771 83.7917 858.188 82.125C854.688 80.4583 851.729 78.375 849.312 75.875C846.979 73.375 845.812 70.125 845.812 66.125C844.979 63.7917 845.229 61.4583 846.562 59.125C847.979 56.7083 849.938 54.4583 852.438 52.375C855.021 50.2917 857.979 48.3333 861.312 46.5C864.646 44.6667 867.854 43.1667 870.938 42C874.104 40.8333 876.938 39.9583 879.438 39.375C881.938 38.7917 883.646 38.6667 884.562 39C885.479 39.3333 885.354 40.1667 884.188 41.5C883.104 42.8333 880.521 44.75 876.438 47.25C875.854 47.25 875.271 47.2083 874.688 47.125C874.104 47.0417 873.729 46.625 873.562 45.875C871.729 46.5417 869.562 47.5833 867.062 49C864.562 50.4167 862.146 52.0833 859.812 54C857.562 55.8333 855.646 57.875 854.062 60.125C852.479 62.2917 851.688 64.4583 851.688 66.625C851.688 70.0417 852.854 72.75 855.188 74.75C857.604 76.6667 860.562 78.3333 864.062 79.75C867.646 81.0833 871.521 82.3333 875.688 83.5C879.854 84.5833 883.729 85.9167 887.312 87.5C890.896 89 893.854 91 896.188 93.5C898.521 95.9167 899.688 99.125 899.688 103.125C899.688 105.375 899.146 107.458 898.062 109.375C896.979 111.208 895.562 112.917 893.812 114.5C892.062 116 890.062 117.333 887.812 118.5C885.562 119.667 883.229 120.667 880.812 121.5C878.479 122.333 876.146 122.958 873.812 123.375C871.562 123.792 869.562 124 867.812 124C866.979 124 866.104 123.75 865.188 123.25C864.354 122.667 863.562 121.958 862.812 121.125C862.146 120.292 861.562 119.417 861.062 118.5C860.562 117.583 860.312 116.75 860.312 116ZM907.438 61.625V45.875C907.604 45.7917 907.979 45.75 908.562 45.75C909.146 45.6667 909.521 45.625 909.688 45.625C910.521 45.625 911.104 45.7917 911.438 46.125C911.771 46.4583 912.021 46.8333 912.188 47.25C912.354 47.5833 912.521 47.9167 912.688 48.25C912.938 48.5833 913.354 48.75 913.938 48.75C915.271 48.75 916.938 48.5 918.938 48C921.021 47.4167 923.188 46.7917 925.438 46.125C927.688 45.4583 929.896 44.8333 932.062 44.25C934.312 43.5833 936.229 43.125 937.812 42.875H938.812C939.812 42.875 940.646 43.125 941.312 43.625C942.062 44.0417 942.438 44.7917 942.438 45.875C942.438 45.9583 942.396 46.1667 942.312 46.5C942.312 46.8333 942.312 47.0417 942.312 47.125C940.146 47.2917 937.688 47.5417 934.938 47.875C932.188 48.2083 929.396 48.75 926.562 49.5C923.812 50.1667 921.229 51.125 918.812 52.375C916.479 53.625 914.604 55.25 913.188 57.25V65.5C913.188 67.4167 913.188 69.5 913.188 71.75C913.271 74 913.354 76.1667 913.438 78.25C913.604 80.3333 913.771 82.25 913.938 84C914.188 85.6667 914.479 86.9167 914.812 87.75L946.688 74.75C948.438 74.9167 949.604 75.125 950.188 75.375C950.854 75.625 951.146 75.9583 951.062 76.375C950.979 76.7917 950.604 77.25 949.938 77.75C949.354 78.1667 948.729 78.625 948.062 79.125C946.896 79.625 944.812 80.5833 941.812 82C938.812 83.3333 935.604 84.7917 932.188 86.375C928.771 87.875 925.562 89.3333 922.562 90.75C919.562 92.0833 917.479 93.0417 916.312 93.625C915.646 93.7083 915.188 93.9583 914.938 94.375C914.771 94.7917 914.646 95.25 914.562 95.75C914.562 96.25 914.562 96.7917 914.562 97.375C914.646 97.875 914.688 98.25 914.688 98.5C914.688 100.917 914.979 103.292 915.562 105.625C916.146 107.958 916.438 110.375 916.438 112.875C916.438 113.958 916.062 115 915.312 116C914.562 116.917 913.312 117.375 911.562 117.375L907.438 61.625ZM958.188 111C957.438 111.167 956.271 111.5 954.688 112C953.188 112.417 951.396 112.917 949.312 113.5C947.312 114.083 945.188 114.708 942.938 115.375C940.771 115.958 938.688 116.542 936.688 117.125C934.688 117.625 932.854 118.125 931.188 118.625C929.604 119.042 928.438 119.375 927.688 119.625C925.771 120.208 924.354 120.75 923.438 121.25C922.604 121.667 921.854 122.042 921.188 122.375C920.604 122.625 919.896 122.833 919.062 123C918.312 123.083 917.062 123.125 915.312 123.125C915.312 121.125 915.479 119.708 915.812 118.875C916.229 117.958 917.312 117.25 919.062 116.75L956.438 106.375L958.188 111ZM966.812 53C966.229 52.0833 965.812 51.0417 965.562 49.875C965.312 48.7083 965.146 47.5417 965.062 46.375C965.062 45.2083 965.062 44.0833 965.062 43C965.146 41.8333 965.188 40.7917 965.188 39.875V38.125C965.188 37.2917 965.188 36.4583 965.188 35.625C965.271 34.7083 965.312 33.8333 965.312 33C965.396 32.1667 965.438 31.5833 965.438 31.25C965.521 31 965.938 30.6667 966.688 30.25C967.438 29.8333 967.979 29.6667 968.312 29.75C969.729 30.0833 970.562 30.7917 970.812 31.875C971.062 32.9583 971.146 34.125 971.062 35.375C970.979 36.5417 970.938 37.5833 970.938 38.5C971.021 39.4167 971.562 39.875 972.562 39.875H989.938C991.771 39.875 993.271 40.4167 994.438 41.5C995.604 42.5833 996.521 43.9167 997.188 45.5C997.854 47.0833 998.271 48.7083 998.438 50.375C998.688 52.0417 998.812 53.5 998.812 54.75C998.812 58.5 998.229 62.25 997.062 66C995.896 69.6667 994.396 73.2917 992.562 76.875C990.729 80.4583 988.812 83.9167 986.812 87.25C984.812 90.5 982.979 93.5833 981.312 96.5V98.75C985.146 98.75 988.354 98.5833 990.938 98.25C993.604 97.9167 996.104 97.5833 998.438 97.25C1000.85 96.8333 1003.35 96.4583 1005.94 96.125C1008.6 95.7917 1011.9 95.625 1015.81 95.625H1018.31C1019.48 95.625 1020.73 95.6667 1022.06 95.75C1023.4 95.75 1024.6 95.75 1025.69 95.75H1028.19C1028.94 96.0833 1029.4 96.5417 1029.56 97.125C1029.73 97.625 1029.81 98.1667 1029.81 98.75C1029.81 99.75 1029.6 100.667 1029.19 101.5C1028.85 102.25 1028.06 102.792 1026.81 103.125C1023.73 101.792 1020.69 101 1017.69 100.75C1014.69 100.5 1011.69 100.5 1008.69 100.75C1005.77 101 1002.9 101.458 1000.06 102.125C997.312 102.792 994.521 103.375 991.688 103.875C988.854 104.292 985.979 104.625 983.062 104.875C980.229 105.125 977.354 104.958 974.438 104.375C974.438 107.042 974.604 109.625 974.938 112.125C975.354 114.625 975.562 117.208 975.562 119.875C975.562 120.708 975.479 121.625 975.312 122.625C975.229 123.625 974.604 124.125 973.438 124.125C972.938 124.125 972.479 124.042 972.062 123.875C971.646 123.625 971.354 123.167 971.188 122.5C971.104 122.25 970.979 121.625 970.812 120.625C970.646 119.625 970.479 118.625 970.312 117.625C970.229 116.542 970.104 115.542 969.938 114.625C969.854 113.625 969.771 112.875 969.688 112.375C969.604 110.875 969.479 108.625 969.312 105.625C969.146 102.542 968.938 99.0417 968.688 95.125C968.521 91.125 968.312 87 968.062 82.75C967.896 78.4167 967.688 74.2917 967.438 70.375C967.271 66.4583 967.146 62.9583 967.062 59.875C966.979 56.7917 966.896 54.5 966.812 53ZM971.188 51.5C971.271 52.75 971.354 54.625 971.438 57.125C971.604 59.5417 971.771 62.3333 971.938 65.5C972.188 68.6667 972.396 72 972.562 75.5C972.812 78.9167 973.021 82.2083 973.188 85.375C973.438 88.4583 973.604 91.2917 973.688 93.875C973.854 96.375 973.979 98.2083 974.062 99.375C976.062 96.2917 978.229 92.9583 980.562 89.375C982.896 85.7083 985.104 81.9583 987.188 78.125C989.271 74.2083 990.979 70.25 992.312 66.25C993.729 62.25 994.438 58.3333 994.438 54.5C994.438 52.9167 994.104 51.5 993.438 50.25C992.854 48.9167 992.021 47.8333 990.938 47C989.938 46.0833 988.729 45.4167 987.312 45C985.896 44.5 984.438 44.25 982.938 44.25C982.188 44.25 981.146 44.3333 979.812 44.5C978.479 44.6667 977.146 44.9583 975.812 45.375C974.562 45.7917 973.479 46.375 972.562 47.125C971.646 47.875 971.188 48.8333 971.188 50V51.5ZM1029.06 129.875C1028.31 129.875 1027.77 129.667 1027.44 129.25C1027.1 128.833 1026.85 128.292 1026.69 127.625C1026.6 127.042 1026.6 126.375 1026.69 125.625C1026.77 124.958 1026.81 124.417 1026.81 124L1048.69 31.25C1048.85 30.5 1049.19 29.7083 1049.69 28.875C1050.27 27.9583 1050.85 27.2917 1051.44 26.875C1051.69 27.625 1052.06 28.4167 1052.56 29.25C1053.06 30 1053.69 30.6667 1054.44 31.25L1089.19 110.875C1089.27 110.958 1089.31 111.167 1089.31 111.5V112.25C1089.31 113.083 1089.15 113.833 1088.81 114.5C1088.48 115.083 1087.9 115.375 1087.06 115.375C1085.98 115.375 1085.23 114.875 1084.81 113.875L1076.06 93.625C1076.06 93.5417 1075.52 93.4583 1074.44 93.375C1073.44 93.2083 1072.65 93.125 1072.06 93.125C1071.73 93.125 1071.23 93.1667 1070.56 93.25C1069.98 93.25 1069.35 93.2917 1068.69 93.375C1068.02 93.375 1067.4 93.4167 1066.81 93.5C1066.31 93.5833 1066.02 93.625 1065.94 93.625C1064.02 93.9583 1061.52 94.4167 1058.44 95C1055.44 95.5 1052.48 96.0833 1049.56 96.75C1046.65 97.3333 1044.1 97.875 1041.94 98.375C1039.85 98.875 1038.73 99.2083 1038.56 99.375L1031.19 128.25C1031.1 128.833 1030.85 129.25 1030.44 129.5C1030.02 129.75 1029.56 129.875 1029.06 129.875ZM1051.44 39.875C1051.35 40.125 1051.23 40.4583 1051.06 40.875C1050.98 41.2083 1050.85 41.625 1050.69 42.125C1050.52 42.5417 1050.4 42.9583 1050.31 43.375C1050.23 43.7917 1050.15 44.0833 1050.06 44.25C1049.48 46.4167 1048.85 49.0417 1048.19 52.125L1043.81 71.75C1043.06 75.1667 1042.4 78.2917 1041.81 81.125C1041.31 83.9583 1040.85 86.4167 1040.44 88.5C1040.1 90.5833 1039.94 91.9167 1039.94 92.5C1041.1 92.5 1042.73 92.4167 1044.81 92.25C1046.9 92.0833 1049.1 91.8333 1051.44 91.5C1053.85 91.0833 1056.27 90.6667 1058.69 90.25C1061.19 89.8333 1063.4 89.3333 1065.31 88.75C1067.31 88.1667 1068.94 87.5833 1070.19 87C1071.44 86.3333 1072.06 85.6667 1072.06 85C1072.06 84.8333 1072.02 84.5833 1071.94 84.25C1071.94 83.8333 1071.9 83.5417 1071.81 83.375L1051.44 39.875Z"/>
<path d="M67 148H1137" stroke-opacity="0.5"/>
<path d="M162.499 203L149.389 170.041H149.267C149.299 170.643 149.324 171.278 149.34 171.945C149.372 172.596 149.397 173.28 149.413 173.996C149.429 174.712 149.438 175.461 149.438 176.242V203H147.045V167.307H150.854L163.5 199.094H163.646L176.391 167.307H180.102V203H177.636V175.949C177.636 175.314 177.644 174.663 177.66 173.996C177.676 173.329 177.693 172.67 177.709 172.019C177.742 171.351 177.774 170.708 177.807 170.09H177.66L164.501 203H162.499ZM190.209 203V167.307H192.724V203H190.209ZM217.968 169.064C215.689 169.064 213.655 169.455 211.864 170.236C210.074 171.001 208.56 172.092 207.323 173.508C206.086 174.924 205.142 176.617 204.491 178.586C203.84 180.539 203.515 182.696 203.515 185.056C203.515 188.311 204.027 191.159 205.053 193.601C206.078 196.026 207.616 197.906 209.667 199.24C211.734 200.575 214.306 201.242 217.382 201.242C219.172 201.242 220.8 201.112 222.265 200.852C223.729 200.575 225.089 200.225 226.342 199.802V201.999C225.154 202.438 223.811 202.797 222.313 203.073C220.832 203.35 219.107 203.488 217.138 203.488C213.573 203.488 210.578 202.723 208.153 201.193C205.744 199.663 203.93 197.515 202.709 194.748C201.488 191.981 200.878 188.75 200.878 185.056C200.878 182.403 201.26 179.969 202.025 177.756C202.79 175.526 203.905 173.597 205.37 171.97C206.851 170.326 208.65 169.056 210.766 168.161C212.882 167.25 215.29 166.794 217.992 166.794C219.701 166.794 221.329 166.965 222.875 167.307C224.438 167.632 225.902 168.112 227.27 168.747L226.293 170.944C224.975 170.293 223.624 169.821 222.24 169.528C220.857 169.219 219.433 169.064 217.968 169.064ZM242.528 167.307C245.36 167.307 247.72 167.616 249.608 168.234C251.513 168.853 252.945 169.87 253.905 171.286C254.866 172.702 255.346 174.615 255.346 177.023C255.346 178.83 255.012 180.384 254.345 181.687C253.694 182.972 252.79 184.03 251.635 184.86C250.479 185.69 249.145 186.325 247.631 186.765L257.421 203H254.442L245.238 187.473H236.376V203H233.861V167.307H242.528ZM242.284 169.528H236.376V185.251H243.48C246.394 185.251 248.664 184.551 250.292 183.151C251.936 181.752 252.758 179.742 252.758 177.121C252.758 174.24 251.895 172.255 250.17 171.164C248.445 170.074 245.816 169.528 242.284 169.528ZM293.627 185.104C293.627 187.823 293.293 190.305 292.626 192.551C291.959 194.797 290.958 196.734 289.623 198.361C288.288 199.989 286.62 201.25 284.618 202.146C282.632 203.041 280.313 203.488 277.66 203.488C274.991 203.488 272.655 203.041 270.653 202.146C268.651 201.25 266.983 199.989 265.648 198.361C264.33 196.717 263.337 194.772 262.67 192.526C262.003 190.264 261.669 187.774 261.669 185.056C261.669 181.442 262.279 178.26 263.5 175.51C264.737 172.759 266.552 170.611 268.944 169.064C271.353 167.518 274.324 166.745 277.855 166.745C281.241 166.745 284.105 167.486 286.449 168.967C288.809 170.432 290.591 172.539 291.796 175.29C293.017 178.024 293.627 181.296 293.627 185.104ZM264.306 185.08C264.306 188.27 264.786 191.086 265.746 193.527C266.706 195.952 268.179 197.849 270.165 199.216C272.151 200.583 274.657 201.267 277.685 201.267C280.744 201.267 283.259 200.591 285.229 199.24C287.198 197.889 288.655 196.001 289.599 193.576C290.543 191.151 291.015 188.327 291.015 185.104C291.015 180.01 289.9 176.055 287.67 173.239C285.456 170.424 282.185 169.016 277.855 169.016C274.812 169.016 272.281 169.691 270.263 171.042C268.261 172.393 266.763 174.273 265.771 176.682C264.794 179.09 264.306 181.89 264.306 185.08ZM301.83 167.307H311.62C316.031 167.307 319.254 167.998 321.288 169.382C323.339 170.765 324.364 172.971 324.364 175.998C324.364 177.365 324.096 178.61 323.559 179.733C323.038 180.856 322.257 181.8 321.215 182.565C320.189 183.314 318.92 183.827 317.406 184.104V184.274C319.213 184.551 320.702 185.056 321.874 185.788C323.062 186.504 323.941 187.456 324.511 188.645C325.097 189.816 325.39 191.216 325.39 192.844C325.39 195.188 324.853 197.108 323.778 198.605C322.72 200.103 321.247 201.21 319.359 201.926C317.471 202.642 315.29 203 312.816 203H301.83V167.307ZM304.345 183.176H312.255C315.608 183.176 318.033 182.59 319.53 181.418C321.028 180.246 321.776 178.513 321.776 176.218C321.776 173.841 320.971 172.132 319.359 171.091C317.748 170.049 315.168 169.528 311.62 169.528H304.345V183.176ZM304.345 185.373V200.778H312.743C316.047 200.778 318.537 200.111 320.214 198.776C321.89 197.425 322.729 195.415 322.729 192.746C322.729 190.988 322.338 189.572 321.557 188.498C320.775 187.408 319.604 186.618 318.041 186.13C316.495 185.625 314.566 185.373 312.255 185.373H304.345ZM333.178 203V167.307H335.692V200.705H352.685V203H333.178ZM381.151 203L376.293 190.378H361.303L356.347 203H353.783L367.821 167.185H370.116L383.788 203H381.151ZM375.487 188.107L370.556 174.729C370.425 174.387 370.263 173.947 370.067 173.41C369.888 172.873 369.693 172.303 369.481 171.701C369.286 171.099 369.091 170.529 368.896 169.992C368.733 170.562 368.554 171.132 368.358 171.701C368.163 172.271 367.976 172.824 367.797 173.361C367.618 173.882 367.447 174.354 367.284 174.777L362.157 188.107H375.487ZM415.99 184.812C415.99 188.799 415.282 192.144 413.866 194.846C412.466 197.548 410.383 199.582 407.616 200.949C404.866 202.316 401.456 203 397.387 203H388.842V167.307H398.51C402.318 167.307 405.517 167.974 408.104 169.309C410.692 170.643 412.654 172.613 413.988 175.217C415.323 177.805 415.99 181.003 415.99 184.812ZM413.354 184.909C413.354 181.507 412.8 178.667 411.693 176.389C410.587 174.11 408.894 172.401 406.615 171.262C404.337 170.106 401.448 169.528 397.948 169.528H391.356V200.778H397.265C402.652 200.778 406.68 199.46 409.35 196.823C412.019 194.17 413.354 190.199 413.354 184.909ZM424.145 203V167.307H426.659V203H424.145ZM462.719 203H460.155L439.062 171.433H438.939C438.972 172.312 438.996 173.207 439.013 174.118C439.045 175.013 439.07 175.941 439.086 176.901C439.118 177.845 439.135 178.822 439.135 179.831V203H436.742V167.307H439.33L460.351 198.776H460.473C460.456 198.06 460.432 197.23 460.399 196.286C460.383 195.342 460.359 194.374 460.326 193.381C460.31 192.388 460.302 191.452 460.302 190.573V167.307H462.719V203ZM486.913 184.982H500.023V201.364C498.314 202.08 496.492 202.618 494.555 202.976C492.618 203.317 490.559 203.488 488.378 203.488C484.586 203.488 481.387 202.772 478.783 201.34C476.195 199.891 474.234 197.8 472.899 195.065C471.565 192.331 470.897 189.043 470.897 185.202C470.897 181.621 471.622 178.439 473.07 175.656C474.535 172.873 476.627 170.692 479.345 169.113C482.063 167.535 485.318 166.745 489.11 166.745C491.063 166.745 492.903 166.924 494.628 167.282C496.369 167.64 498.021 168.177 499.584 168.894L498.583 171.14C497.037 170.424 495.458 169.886 493.847 169.528C492.252 169.17 490.632 168.991 488.988 168.991C485.766 168.991 482.991 169.683 480.663 171.066C478.352 172.434 476.578 174.338 475.341 176.779C474.12 179.204 473.51 182.004 473.51 185.178C473.51 188.775 474.104 191.761 475.292 194.138C476.48 196.514 478.214 198.296 480.492 199.484C482.787 200.673 485.57 201.267 488.842 201.267C490.632 201.267 492.235 201.136 493.651 200.876C495.084 200.616 496.378 200.274 497.533 199.851V187.277H486.913V184.982ZM518.969 190.622V188.352H531.078V190.622H518.969ZM566.552 203L553.441 170.041H553.319C553.352 170.643 553.376 171.278 553.393 171.945C553.425 172.596 553.45 173.28 553.466 173.996C553.482 174.712 553.49 175.461 553.49 176.242V203H551.098V167.307H554.906L567.553 199.094H567.699L580.443 167.307H584.154V203H581.688V175.949C581.688 175.314 581.697 174.663 581.713 173.996C581.729 173.329 581.745 172.67 581.762 172.019C581.794 171.351 581.827 170.708 581.859 170.09H581.713L568.554 203H566.552ZM594.262 203V167.307H596.776V203H594.262ZM622.021 169.064C619.742 169.064 617.707 169.455 615.917 170.236C614.127 171.001 612.613 172.092 611.376 173.508C610.139 174.924 609.195 176.617 608.544 178.586C607.893 180.539 607.567 182.696 607.567 185.056C607.567 188.311 608.08 191.159 609.105 193.601C610.131 196.026 611.669 197.906 613.72 199.24C615.787 200.575 618.358 201.242 621.435 201.242C623.225 201.242 624.853 201.112 626.317 200.852C627.782 200.575 629.141 200.225 630.395 199.802V201.999C629.206 202.438 627.864 202.797 626.366 203.073C624.885 203.35 623.16 203.488 621.19 203.488C617.626 203.488 614.631 202.723 612.206 201.193C609.797 199.663 607.982 197.515 606.762 194.748C605.541 191.981 604.931 188.75 604.931 185.056C604.931 182.403 605.313 179.969 606.078 177.756C606.843 175.526 607.958 173.597 609.423 171.97C610.904 170.326 612.702 169.056 614.818 168.161C616.934 167.25 619.343 166.794 622.045 166.794C623.754 166.794 625.382 166.965 626.928 167.307C628.49 167.632 629.955 168.112 631.322 168.747L630.346 170.944C629.027 170.293 627.676 169.821 626.293 169.528C624.91 169.219 623.485 169.064 622.021 169.064ZM646.581 167.307C649.413 167.307 651.773 167.616 653.661 168.234C655.565 168.853 656.998 169.87 657.958 171.286C658.918 172.702 659.398 174.615 659.398 177.023C659.398 178.83 659.065 180.384 658.397 181.687C657.746 182.972 656.843 184.03 655.688 184.86C654.532 185.69 653.197 186.325 651.684 186.765L661.474 203H658.495L649.291 187.473H640.429V203H637.914V167.307H646.581ZM646.337 169.528H640.429V185.251H647.533C650.447 185.251 652.717 184.551 654.345 183.151C655.989 181.752 656.811 179.742 656.811 177.121C656.811 174.24 655.948 172.255 654.223 171.164C652.497 170.074 649.869 169.528 646.337 169.528ZM697.68 185.104C697.68 187.823 697.346 190.305 696.679 192.551C696.011 194.797 695.01 196.734 693.676 198.361C692.341 199.989 690.673 201.25 688.671 202.146C686.685 203.041 684.366 203.488 681.713 203.488C679.044 203.488 676.708 203.041 674.706 202.146C672.704 201.25 671.036 199.989 669.701 198.361C668.383 196.717 667.39 194.772 666.723 192.526C666.055 190.264 665.722 187.774 665.722 185.056C665.722 181.442 666.332 178.26 667.553 175.51C668.79 172.759 670.604 170.611 672.997 169.064C675.406 167.518 678.376 166.745 681.908 166.745C685.294 166.745 688.158 167.486 690.502 168.967C692.862 170.432 694.644 172.539 695.849 175.29C697.069 178.024 697.68 181.296 697.68 185.104ZM668.358 185.08C668.358 188.27 668.839 191.086 669.799 193.527C670.759 195.952 672.232 197.849 674.218 199.216C676.203 200.583 678.71 201.267 681.737 201.267C684.797 201.267 687.312 200.591 689.281 199.24C691.251 197.889 692.707 196.001 693.651 193.576C694.595 191.151 695.067 188.327 695.067 185.104C695.067 180.01 693.952 176.055 691.723 173.239C689.509 170.424 686.238 169.016 681.908 169.016C678.865 169.016 676.334 169.691 674.315 171.042C672.313 172.393 670.816 174.273 669.823 176.682C668.847 179.09 668.358 181.89 668.358 185.08ZM714.647 167.307C718.896 167.307 722.077 168.12 724.193 169.748C726.309 171.376 727.367 173.907 727.367 177.341C727.367 179.099 727.082 180.661 726.513 182.028C725.959 183.379 725.121 184.519 723.998 185.446C722.875 186.374 721.467 187.074 719.774 187.546C718.098 188.018 716.137 188.254 713.891 188.254H708.397V203H705.883V167.307H714.647ZM714.379 169.528H708.397V186.032H713.646C715.958 186.032 717.943 185.772 719.604 185.251C721.264 184.714 722.541 183.819 723.437 182.565C724.332 181.312 724.779 179.603 724.779 177.438C724.779 174.688 723.933 172.686 722.24 171.433C720.548 170.163 717.927 169.528 714.379 169.528ZM735.131 203V167.307H737.646V203H735.131ZM761.815 184.982H774.926V201.364C773.217 202.08 771.394 202.618 769.457 202.976C767.52 203.317 765.461 203.488 763.28 203.488C759.488 203.488 756.29 202.772 753.686 201.34C751.098 199.891 749.136 197.8 747.802 195.065C746.467 192.331 745.8 189.043 745.8 185.202C745.8 181.621 746.524 178.439 747.973 175.656C749.438 172.873 751.529 170.692 754.247 169.113C756.965 167.535 760.22 166.745 764.013 166.745C765.966 166.745 767.805 166.924 769.53 167.282C771.272 167.64 772.924 168.177 774.486 168.894L773.485 171.14C771.939 170.424 770.36 169.886 768.749 169.528C767.154 169.17 765.535 168.991 763.891 168.991C760.668 168.991 757.893 169.683 755.565 171.066C753.254 172.434 751.48 174.338 750.243 176.779C749.022 179.204 748.412 182.004 748.412 185.178C748.412 188.775 749.006 191.761 750.194 194.138C751.382 196.514 753.116 198.296 755.395 199.484C757.689 200.673 760.473 201.267 763.744 201.267C765.535 201.267 767.138 201.136 768.554 200.876C769.986 200.616 771.28 200.274 772.436 199.851V187.277H761.815V184.982ZM799.364 203L786.254 170.041H786.132C786.164 170.643 786.189 171.278 786.205 171.945C786.238 172.596 786.262 173.28 786.278 173.996C786.295 174.712 786.303 175.461 786.303 176.242V203H783.91V167.307H787.719L800.365 199.094H800.512L813.256 167.307H816.967V203H814.501V175.949C814.501 175.314 814.509 174.663 814.525 173.996C814.542 173.329 814.558 172.67 814.574 172.019C814.607 171.351 814.639 170.708 814.672 170.09H814.525L801.366 203H799.364ZM846.581 203H827.074V167.307H846.581V169.577H829.589V183.103H845.629V185.373H829.589V200.729H846.581V203ZM880.688 203H878.124L857.03 171.433H856.908C856.941 172.312 856.965 173.207 856.981 174.118C857.014 175.013 857.038 175.941 857.055 176.901C857.087 177.845 857.104 178.822 857.104 179.831V203H854.711V167.307H857.299L878.319 198.776H878.441C878.425 198.06 878.401 197.23 878.368 196.286C878.352 195.342 878.327 194.374 878.295 193.381C878.279 192.388 878.271 191.452 878.271 190.573V167.307H880.688V203ZM900.121 203H897.582V169.577H886.01V167.307H911.693V169.577H900.121V203ZM939.354 203L934.496 190.378H919.506L914.55 203H911.986L926.024 167.185H928.319L941.991 203H939.354ZM933.69 188.107L928.759 174.729C928.629 174.387 928.466 173.947 928.271 173.41C928.091 172.873 927.896 172.303 927.685 171.701C927.489 171.099 927.294 170.529 927.099 169.992C926.936 170.562 926.757 171.132 926.562 171.701C926.366 172.271 926.179 172.824 926 173.361C925.821 173.882 925.65 174.354 925.487 174.777L920.36 188.107H933.69ZM962.206 169.064C959.927 169.064 957.893 169.455 956.103 170.236C954.312 171.001 952.799 172.092 951.562 173.508C950.325 174.924 949.381 176.617 948.729 178.586C948.078 180.539 947.753 182.696 947.753 185.056C947.753 188.311 948.266 191.159 949.291 193.601C950.316 196.026 951.854 197.906 953.905 199.24C955.972 200.575 958.544 201.242 961.62 201.242C963.41 201.242 965.038 201.112 966.503 200.852C967.968 200.575 969.327 200.225 970.58 199.802V201.999C969.392 202.438 968.049 202.797 966.552 203.073C965.071 203.35 963.345 203.488 961.376 203.488C957.812 203.488 954.817 202.723 952.392 201.193C949.983 199.663 948.168 197.515 946.947 194.748C945.727 191.981 945.116 188.75 945.116 185.056C945.116 182.403 945.499 179.969 946.264 177.756C947.029 175.526 948.144 173.597 949.608 171.97C951.09 170.326 952.888 169.056 955.004 168.161C957.12 167.25 959.529 166.794 962.23 166.794C963.939 166.794 965.567 166.965 967.113 167.307C968.676 167.632 970.141 168.112 971.508 168.747L970.531 170.944C969.213 170.293 967.862 169.821 966.479 169.528C965.095 169.219 963.671 169.064 962.206 169.064ZM978.1 203V167.307H980.614V203H978.1ZM1020.73 185.104C1020.73 187.823 1020.39 190.305 1019.73 192.551C1019.06 194.797 1018.06 196.734 1016.72 198.361C1015.39 199.989 1013.72 201.25 1011.72 202.146C1009.73 203.041 1007.41 203.488 1004.76 203.488C1002.09 203.488 999.755 203.041 997.753 202.146C995.751 201.25 994.083 199.989 992.748 198.361C991.43 196.717 990.437 194.772 989.77 192.526C989.102 190.264 988.769 187.774 988.769 185.056C988.769 181.442 989.379 178.26 990.6 175.51C991.837 172.759 993.651 170.611 996.044 169.064C998.453 167.518 1001.42 166.745 1004.96 166.745C1008.34 166.745 1011.21 167.486 1013.55 168.967C1015.91 170.432 1017.69 172.539 1018.9 175.29C1020.12 178.024 1020.73 181.296 1020.73 185.104ZM991.405 185.08C991.405 188.27 991.885 191.086 992.846 193.527C993.806 195.952 995.279 197.849 997.265 199.216C999.25 200.583 1001.76 201.267 1004.78 201.267C1007.84 201.267 1010.36 200.591 1012.33 199.24C1014.3 197.889 1015.75 196.001 1016.7 193.576C1017.64 191.151 1018.11 188.327 1018.11 185.104C1018.11 180.01 1017 176.055 1014.77 173.239C1012.56 170.424 1009.28 169.016 1004.96 169.016C1001.91 169.016 999.381 169.691 997.362 171.042C995.36 172.393 993.863 174.273 992.87 176.682C991.894 179.09 991.405 181.89 991.405 185.08ZM1011.89 155.539V155.954C1011.5 156.475 1011.02 157.069 1010.45 157.736C1009.88 158.387 1009.26 159.063 1008.59 159.763C1007.93 160.463 1007.25 161.138 1006.57 161.789C1005.88 162.44 1005.22 163.026 1004.59 163.547H1002.83V163.132C1003.48 162.481 1004.2 161.708 1004.98 160.812C1005.76 159.901 1006.5 158.981 1007.2 158.054C1007.92 157.11 1008.5 156.271 1008.96 155.539H1011.89ZM1054.91 203H1052.34L1031.25 171.433H1031.13C1031.16 172.312 1031.18 173.207 1031.2 174.118C1031.23 175.013 1031.26 175.941 1031.27 176.901C1031.31 177.845 1031.32 178.822 1031.32 179.831V203H1028.93V167.307H1031.52L1052.54 198.776H1052.66C1052.64 198.06 1052.62 197.23 1052.59 196.286C1052.57 195.342 1052.55 194.374 1052.51 193.381C1052.5 192.388 1052.49 191.452 1052.49 190.573V167.307H1054.91V203Z" />
</svg>
