<?xml version="1.0" standalone="no"?>
<!DOCTYPE svg PUBLIC "-//W3C//DTD SVG 20010904//EN"
 "http://www.w3.org/TR/2001/REC-SVG-20010904/DTD/svg10.dtd">
<svg version="1.0" xmlns="http://www.w3.org/2000/svg"
 width="1276.000000pt" height="1276.000000pt" viewBox="0 0 1276.000000 1276.000000"
 preserveAspectRatio="xMidYMid meet">
<metadata>
Created by potrace 1.14, written by Peter Selinger 2001-2017
</metadata>
<g transform="translate(0.000000,1276.000000) scale(0.100000,-0.100000)"
fill="#000000" stroke="none">
<path d="M5538 8635 c-2 -1 -95 -6 -208 -9 -113 -4 -225 -9 -250 -11 -25 -2
-92 -6 -150 -10 -58 -3 -118 -8 -135 -9 -16 -2 -66 -7 -110 -11 -44 -4 -91 -9
-105 -10 -94 -9 -520 -69 -640 -91 -14 -2 -36 -6 -50 -8 -29 -6 -131 -23 -175
-30 -16 -3 -75 -14 -130 -25 -55 -11 -111 -22 -125 -25 -14 -3 -36 -8 -50 -11
-14 -3 -43 -10 -65 -14 -22 -5 -76 -19 -120 -31 -44 -12 -87 -23 -95 -25 -78
-19 -372 -116 -367 -122 3 -2 60 12 128 31 99 28 288 77 389 101 17 4 283 63
315 70 44 9 181 37 205 41 14 2 48 9 75 14 70 14 212 38 265 45 25 3 56 8 70
10 49 9 86 14 175 25 50 6 106 12 125 15 19 2 62 7 95 10 33 3 76 8 95 10 19
2 76 7 125 11 50 3 101 7 115 9 59 9 362 18 555 18 244 0 566 -12 750 -28 28
-2 93 -7 145 -11 52 -3 109 -8 125 -9 110 -10 194 -18 220 -20 17 -2 62 -6
100 -9 39 -4 86 -8 105 -11 19 -2 62 -7 95 -10 33 -3 71 -8 85 -10 14 -2 46
-6 72 -9 26 -3 63 -8 82 -11 20 -3 53 -7 74 -10 38 -6 76 -11 127 -20 17 -3
59 -10 95 -15 111 -17 131 -21 300 -56 476 -100 1025 -276 1465 -469 153 -67
317 -135 326 -135 7 0 -3 11 -22 23 -151 105 -181 127 -170 127 53 0 683 -361
826 -473 6 -4 48 -35 95 -69 234 -168 407 -331 634 -598 119 -140 140 -176 55
-95 -72 69 -69 66 -139 126 -29 24 -60 51 -69 60 -25 24 -160 131 -221 174
-30 22 -57 42 -60 46 -18 23 -411 279 -540 351 -25 14 -74 42 -110 63 -109 62
-368 188 -525 255 -27 12 -63 28 -80 35 -138 63 -657 251 -890 323 -103 32
-376 110 -407 117 -10 2 -73 17 -140 34 -201 49 -364 83 -465 96 -12 2 -34 6
-50 9 -45 9 -108 17 -273 35 -52 6 -117 13 -145 16 -27 3 -69 8 -92 10 -22 2
-63 6 -90 9 -26 3 -77 8 -113 12 -36 3 -78 8 -95 10 -16 2 -61 6 -100 9 -38 3
-90 8 -115 10 -229 21 -571 25 -1060 12 -281 -8 -281 -8 -435 -26 -55 -6 -122
-14 -149 -16 -26 -3 -80 -10 -120 -16 -39 -6 -84 -12 -101 -14 -28 -3 -58 -8
-115 -19 -14 -3 -43 -8 -65 -11 -125 -18 -453 -78 -645 -119 -14 -3 -36 -8
-50 -11 -39 -8 -58 -13 -150 -35 -47 -11 -96 -23 -110 -26 -41 -8 -204 -53
-387 -105 -94 -27 -283 -78 -420 -114 -299 -79 -491 -143 -718 -240 -196 -84
-417 -187 -411 -192 4 -4 118 33 219 71 116 44 187 71 337 129 160 61 267 97
284 96 6 0 -7 -7 -29 -16 -22 -8 -53 -21 -70 -28 -16 -7 -84 -34 -150 -60
-244 -96 -565 -262 -776 -401 -108 -71 -107 -71 136 31 88 37 184 78 213 91
29 13 55 24 58 24 3 0 20 6 37 14 18 8 111 47 207 86 96 39 184 75 195 79 17
8 50 21 65 26 6 2 25 10 150 60 175 71 404 154 386 140 -11 -8 -23 -15 -28
-15 -10 0 -245 -100 -318 -136 -52 -25 -162 -103 -175 -124 -7 -11 9 -5 90 30
89 40 467 190 580 231 61 22 128 47 150 56 88 33 497 165 553 178 9 2 40 11
67 19 191 55 192 56 288 71 82 14 264 46 282 51 16 4 17 3 4 -5 -8 -5 -26 -12
-40 -15 -13 -2 -94 -21 -179 -40 -85 -20 -164 -38 -175 -41 -184 -37 -335 -80
-369 -103 -92 -64 -132 -83 -243 -118 -143 -44 -255 -85 -250 -91 3 -2 44 8
92 22 48 14 97 27 109 30 11 2 75 18 141 35 66 17 131 32 145 35 75 14 257 57
460 109 96 24 245 59 330 76 85 17 162 33 170 35 26 5 273 44 315 50 22 2 58
7 80 10 71 10 108 14 180 21 39 3 84 8 100 9 36 4 194 15 285 20 93 5 509 5
610 0 173 -9 336 -21 405 -30 22 -2 63 -7 90 -10 59 -6 123 -14 156 -19 13 -3
47 -8 74 -12 28 -4 53 -8 58 -10 4 -1 21 -2 37 -3 17 0 30 -6 30 -12 0 -5 -3
-8 -8 -5 -4 2 -57 7 -117 11 -61 4 -132 8 -160 10 -376 26 -1151 25 -1370 0
-16 -2 -57 -6 -90 -9 -93 -9 -220 -27 -224 -32 -2 -2 36 -4 85 -5 49 0 154 -2
234 -4 242 -6 642 -15 875 -20 121 -3 267 -7 325 -10 253 -13 288 -15 345 -20
33 -3 85 -8 115 -10 147 -14 234 -23 268 -31 80 -17 229 -57 242 -65 12 -8 11
-9 -5 -5 -11 3 -38 8 -60 11 -22 2 -51 7 -65 9 -60 11 -231 31 -345 41 -38 3
-88 8 -110 10 -40 4 -157 11 -335 20 -113 6 -639 7 -760 1 -128 -6 -311 -17
-350 -21 -19 -1 -75 -6 -125 -10 -49 -3 -108 -8 -130 -10 -77 -7 -160 -16
-204 -21 -24 -3 -57 -7 -75 -9 -103 -11 -151 -17 -166 -20 -9 -2 -41 -6 -71
-10 -30 -3 -76 -10 -104 -15 -27 -5 -74 -12 -104 -15 -30 -4 -65 -11 -79 -16
-13 -5 -27 -7 -31 -5 -6 4 -48 -3 -121 -19 -14 -3 -41 -8 -60 -11 -19 -3 -51
-9 -70 -14 -19 -5 -46 -11 -60 -14 -14 -2 -99 -21 -190 -41 -91 -20 -176 -38
-190 -41 -181 -37 -915 -278 -1125 -369 -16 -7 -51 -21 -76 -30 -47 -17 -301
-155 -286 -155 5 0 42 16 83 35 135 64 342 136 388 134 33 -1 -243 -132 -619
-294 -240 -103 -630 -301 -743 -376 -24 -16 -45 -29 -48 -29 -9 0 -272 -180
-344 -236 -41 -32 -218 -181 -240 -202 l-25 -24 35 17 c59 29 385 214 600 341
134 79 450 238 449 226 0 -10 -183 -124 -250 -155 -30 -15 -82 -51 -115 -80
-32 -29 -75 -64 -94 -77 -19 -13 -37 -27 -40 -30 -3 -3 -49 -38 -102 -78 -115
-87 -152 -126 -55 -60 15 11 27 15 27 10 0 -5 -28 -28 -63 -51 -67 -44 -82
-56 -260 -225 -190 -178 -237 -225 -237 -233 0 -5 -25 -31 -56 -58 -63 -55
-176 -166 -213 -208 -42 -47 -7 -30 56 28 34 30 65 55 70 55 4 0 3 -4 -3 -8
-18 -12 -214 -247 -214 -256 0 -3 37 20 83 51 153 105 482 337 487 343 28 33
829 562 1015 670 72 42 396 225 455 258 36 19 95 52 132 73 36 22 69 39 72 39
3 0 -69 -57 -162 -127 -92 -70 -224 -173 -293 -229 -69 -56 -166 -128 -216
-161 -49 -33 -144 -101 -209 -150 -65 -49 -173 -129 -239 -178 -66 -48 -175
-142 -242 -209 -124 -123 -163 -171 -96 -118 111 86 470 359 483 366 26 16
-103 -104 -160 -147 -82 -63 -111 -88 -150 -131 -56 -63 -83 -90 -110 -111
-14 -11 -51 -51 -82 -90 -30 -38 -67 -83 -82 -98 -14 -15 -27 -33 -27 -40 -1
-7 -3 -22 -4 -34 -1 -12 -51 -94 -110 -183 -89 -133 -109 -169 -113 -207 -2
-25 -21 -82 -42 -127 -98 -211 -151 -392 -180 -617 -7 -48 -10 -98 -8 -113 3
-22 9 -14 43 51 248 474 577 961 806 1192 153 155 356 318 637 512 231 160
378 259 383 259 4 0 -48 -55 -115 -123 -217 -220 -401 -429 -473 -537 -36 -55
-116 -210 -111 -216 6 -5 137 104 218 182 36 34 76 72 90 84 14 12 41 36 60
53 19 18 55 48 80 68 25 20 55 45 66 55 84 74 548 404 568 404 3 0 24 13 48
29 111 75 469 264 663 351 251 113 867 319 1210 404 179 45 378 87 484 102 25
4 55 8 66 10 11 3 38 7 60 9 83 11 201 26 225 30 14 2 70 7 125 10 55 4 116 8
135 9 130 12 198 19 215 22 42 8 349 18 565 18 196 0 346 -7 407 -18 10 -2 43
-7 73 -11 30 -4 64 -9 75 -11 11 -3 36 -7 55 -10 19 -3 83 -17 142 -30 59 -13
165 -35 235 -48 70 -14 139 -28 153 -31 14 -3 36 -8 50 -11 45 -9 161 -44 393
-120 311 -101 323 -99 103 15 -65 33 -109 61 -97 61 12 0 77 -18 144 -40 99
-32 342 -96 432 -114 39 -8 301 -67 360 -81 33 -8 123 -28 200 -45 77 -17 176
-40 220 -52 44 -11 89 -22 100 -24 10 -2 82 -20 160 -40 77 -20 148 -38 158
-40 10 -1 32 -8 50 -14 18 -5 113 -33 212 -61 624 -176 1152 -388 1565 -629
386 -225 693 -459 956 -730 99 -102 113 -119 207 -245 81 -108 95 -130 126
-190 l16 -30 6 35 c11 65 2 303 -15 370 -45 187 -147 411 -346 765 -40 72 -87
150 -104 175 -55 82 -254 347 -298 397 -24 28 -63 74 -88 103 -44 53 -269 281
-364 370 -54 50 -51 36 14 -60 60 -90 58 -89 -46 15 -54 55 -130 127 -168 160
-38 33 -79 69 -90 81 -12 11 -57 50 -101 85 -44 35 -82 66 -85 69 -51 51 -213
175 -345 264 -55 37 -145 98 -200 137 -223 155 -513 311 -819 439 -177 75
-510 196 -723 265 -114 37 -217 71 -228 76 -17 7 -41 14 -120 35 -5 2 -41 12
-79 23 -38 11 -71 19 -73 17 -7 -7 144 -66 329 -128 186 -62 234 -83 122 -53
-64 16 -387 94 -419 101 -11 2 -78 20 -150 39 -71 20 -137 37 -145 39 -8 2
-94 24 -190 49 -150 39 -235 58 -360 82 -65 13 -179 24 -295 30 -160 8 -386
24 -425 30 -24 4 -136 13 -230 20 -168 12 -239 17 -265 22 -31 5 -902 13 -907
8z m4063 -651 c35 -14 75 -30 88 -35 13 -5 21 -12 19 -15 -5 -4 -61 18 -153
61 -50 23 -23 17 46 -11z m-1658 -110 c107 -43 196 -84 182 -84 -5 0 -89 28
-185 61 -96 34 -196 68 -222 77 -27 9 -48 19 -48 23 0 12 175 -38 273 -77z
m1817 41 c14 -8 21 -14 15 -14 -5 0 -21 6 -35 14 -14 8 -20 14 -15 14 6 0 21
-6 35 -14z"/>
<path d="M6612 6297 c-72 -72 -83 -88 -80 -113 3 -28 5 -29 58 -32 100 -4 96
-1 105 -94 4 -46 9 -90 10 -98 1 -8 5 -46 9 -85 5 -38 9 -77 11 -85 1 -8 6
-51 10 -95 4 -44 9 -89 12 -100 2 -11 6 -117 7 -235 2 -118 7 -246 10 -285 35
-355 67 -466 128 -438 l23 10 1 274 c1 151 2 284 3 295 2 33 114 58 266 58
141 0 212 -15 331 -74 97 -47 173 -119 211 -198 24 -49 28 -70 28 -147 0 -83
-3 -96 -34 -160 -69 -141 -194 -233 -381 -282 -8 -2 -64 -6 -123 -8 -118 -3
-123 -1 -154 58 -21 42 -20 42 -38 27 -22 -18 -19 -98 4 -136 10 -17 36 -42
57 -55 50 -31 146 -31 261 -1 247 65 436 232 497 440 18 63 16 204 -4 272 -26
86 -98 180 -181 237 -106 73 -196 104 -392 138 -76 13 -141 25 -143 28 -3 3
21 31 52 63 68 71 192 224 223 277 90 149 120 268 96 377 -21 97 -122 180
-260 214 -104 26 -115 27 -330 32 l-210 5 -83 -84z m614 -69 c68 -19 141 -63
163 -98 22 -37 19 -121 -9 -205 -51 -154 -197 -334 -363 -447 -55 -37 -126
-73 -132 -66 -2 2 -6 28 -10 58 -3 30 -8 71 -10 90 -3 19 -7 55 -10 80 -3 25
-8 63 -10 85 -13 95 -15 108 -30 235 -3 30 -8 66 -10 80 -16 111 -16 149 -1
178 l16 30 177 -3 c116 -2 196 -8 229 -17z"/>
<path d="M4958 6074 c-79 -128 -83 -188 -23 -354 l37 -105 1 -721 1 -722 27
-16 c26 -16 28 -15 56 18 l30 33 -3 124 c-2 126 -12 322 -20 394 -7 65 -12
885 -5 885 3 0 44 -51 91 -113 85 -112 110 -142 250 -290 41 -44 92 -98 113
-121 22 -23 152 -157 290 -299 146 -150 260 -275 271 -298 18 -39 81 -103 94
-95 4 2 25 7 47 10 34 6 145 66 121 66 -5 0 -3 7 4 15 12 14 8 75 -15 260 -2
11 -6 45 -9 75 -14 119 -17 136 -21 170 -3 19 -7 55 -10 80 -6 57 -14 125 -20
170 -3 19 -7 60 -10 90 -6 61 -13 122 -20 160 -2 14 -7 52 -10 85 -3 33 -8 74
-10 90 -2 17 -7 55 -10 86 -3 31 -8 67 -11 80 -2 13 -4 49 -3 79 2 135 1 157
-10 178 -14 26 -62 30 -82 6 -20 -24 -16 -302 6 -461 3 -18 7 -45 9 -60 2 -16
9 -66 15 -113 6 -47 13 -94 15 -105 2 -11 7 -45 10 -75 4 -30 8 -66 11 -80 20
-121 40 -586 26 -609 -8 -13 -26 0 -111 79 -27 24 -91 82 -155 139 -80 72
-211 190 -244 221 -39 36 -172 204 -412 520 -162 212 -153 196 -224 420 -46
145 -55 156 -87 104z"/>
<path d="M435 5460 c-62 -27 -205 -214 -193 -251 3 -8 142 105 197 160 24 24
71 87 71 94 0 10 -51 7 -75 -3z"/>
<path d="M71 4999 c-19 -16 -22 -22 -12 -32 10 -9 17 -7 32 12 34 42 21 55
-20 20z"/>
<path d="M7 4914 c-4 -4 -7 -11 -7 -16 0 -13 50 -6 53 7 2 12 -36 19 -46 9z"/>
</g>
</svg>
